<svg width="66" height="66" viewBox="0 0 66 66" fill="none" xmlns="http://www.w3.org/2000/svg">
<path d="M38.5846 5.28846L42.2231 1.26923L48.95 4.06153L48.6538 9.47692C48.4423 13.9192 52.0808 17.6 56.5231 17.3462L61.9385 17.05L64.7308 23.7769L60.7115 27.4154C57.4115 30.3769 57.4115 35.5808 60.7115 38.5423L64.7308 42.1808L61.9385 48.9077L56.5231 48.6115C52.0808 48.4 48.4 52.0385 48.6538 56.4808L48.95 61.8962L42.2231 64.7308L38.5846 60.7115C35.6231 57.4115 30.4192 57.4115 27.4577 60.7115L23.8192 64.7308L17.0923 61.9385L17.3885 56.5231C17.6 52.0808 13.9615 48.4 9.51923 48.6538L4.10384 48.95L1.26923 42.2231L5.28846 38.5846C8.58846 35.6231 8.58846 30.4192 5.28846 27.4577L1.26923 23.7769L4.06153 17.05L9.47692 17.3462C13.9192 17.5577 17.6 13.9192 17.3462 9.47692L17.0923 4.06153L23.7769 1.26923L27.4154 5.28846C30.4192 8.58846 35.5808 8.58846 38.5846 5.28846Z" stroke="#FF5641" stroke-width="2" stroke-miterlimit="10" stroke-linecap="round" stroke-linejoin="round"/>
<path d="M33 44.6346C39.4256 44.6346 44.6346 39.4256 44.6346 33C44.6346 26.5744 39.4256 21.3654 33 21.3654C26.5744 21.3654 21.3654 26.5744 21.3654 33C21.3654 39.4256 26.5744 44.6346 33 44.6346Z" stroke="#1A1A1A" stroke-width="2" stroke-miterlimit="10" stroke-linecap="round" stroke-linejoin="round"/>
</svg>
