<svg width="62" height="66" viewBox="0 0 62 66" fill="none" xmlns="http://www.w3.org/2000/svg">
<g clip-path="url(#clip0_1:114)">
<path d="M26.0409 43.7463V22.6129H35.1151C38.4915 22.6129 41.1927 25.3602 41.1927 28.6993C41.1927 32.0807 38.4493 34.7857 35.1151 34.7857H26.0409" stroke="#1A1A1A" stroke-width="2" stroke-miterlimit="10" stroke-linecap="round" stroke-linejoin="round"/>
<path d="M23.6773 39.5619H33.2158" stroke="#1A1A1A" stroke-width="2" stroke-miterlimit="10" stroke-linecap="round" stroke-linejoin="round"/>
<path d="M58.8768 47.973C53.5167 57.9058 43.0497 64.6685 30.9789 64.6685C18.9503 64.6685 8.52551 57.9481 3.16541 48.0576" stroke="#FF5641" stroke-width="2" stroke-miterlimit="10" stroke-linecap="round" stroke-linejoin="round"/>
<path d="M2.86996 18.3861C8.14566 8.19979 18.7815 1.26801 30.9789 1.26801C43.2185 1.26801 53.8121 8.19979 59.0878 18.3861" stroke="#FF5641" stroke-width="2" stroke-miterlimit="10" stroke-linecap="round" stroke-linejoin="round"/>
<path d="M1.26617 10.2708L2.49014 18.5129L10.7624 17.2872" stroke="#FF5641" stroke-width="2" stroke-miterlimit="10" stroke-linecap="round" stroke-linejoin="round"/>
<path d="M60.7338 55.6656L59.4676 47.4236L51.2375 48.6493" stroke="#FF5641" stroke-width="2" stroke-miterlimit="10" stroke-linecap="round" stroke-linejoin="round"/>
</g>
<defs>
<clipPath id="clip0_1:114">
<rect width="62" height="65.9365" fill="white"/>
</clipPath>
</defs>
</svg>
