<svg width="66" height="66" viewBox="0 0 66 66" fill="none" xmlns="http://www.w3.org/2000/svg">
<path d="M64.538 35.19C64.538 40.2112 50.419 44.2447 33 44.2447C15.581 44.2447 1.46204 40.2112 1.46204 35.19" stroke="#1A1A1A" stroke-width="2" stroke-miterlimit="10" stroke-linecap="round" stroke-linejoin="round"/>
<path d="M1.46204 30.251C1.46204 25.2298 15.581 21.1963 33 21.1963C50.419 21.1963 64.538 25.2298 64.538 30.251" stroke="#1A1A1A" stroke-width="2" stroke-miterlimit="10" stroke-linecap="round" stroke-linejoin="round"/>
<path d="M33 63.7947C50.5333 63.7947 64.7468 49.7902 64.7468 32.5147C64.7468 15.2393 50.5333 1.23474 33 1.23474C15.4667 1.23474 1.25317 15.2393 1.25317 32.5147C1.25317 49.7902 15.4667 63.7947 33 63.7947Z" stroke="#FF5641" stroke-width="2" stroke-miterlimit="10" stroke-linecap="round" stroke-linejoin="round"/>
<path d="M33 63.7947C42.8048 63.7947 50.7532 49.7902 50.7532 32.5147C50.7532 15.2393 42.8048 1.23474 33 1.23474C23.1952 1.23474 15.2468 15.2393 15.2468 32.5147C15.2468 49.7902 23.1952 63.7947 33 63.7947Z" stroke="#FF5641" stroke-width="2" stroke-miterlimit="10" stroke-linecap="round" stroke-linejoin="round"/>
<path d="M33 1.23474V63.7947" stroke="#FF5641" stroke-width="2" stroke-miterlimit="10" stroke-linecap="round" stroke-linejoin="round"/>
</svg>
