<svg width="66" height="55" viewBox="0 0 66 55" fill="none" xmlns="http://www.w3.org/2000/svg">
<path d="M35.5689 30.0719C41.418 34.5036 49.4802 34.5036 55.3293 30.0719C60.5856 30.0719 64.8144 34.3057 64.8144 39.5683V47.8777H40.7066" stroke="#1A1A1A" stroke-width="2" stroke-miterlimit="10" stroke-linecap="round" stroke-linejoin="round"/>
<path d="M35.5689 12.0683C35.5689 5.18345 39.9952 1.18704 45.4491 1.18704C50.903 1.18704 55.3293 5.18345 55.3293 12.0683C55.3293 18.9532 50.903 26.1151 45.4491 26.1151C39.9952 26.1151 35.5689 18.9532 35.5689 12.0683Z" stroke="#1A1A1A" stroke-width="2" stroke-miterlimit="10" stroke-linecap="round" stroke-linejoin="round"/>
<path d="M39.9162 53.813H1.18563V45.5036C1.18563 40.241 5.41437 36.0072 10.6707 36.0072C16.5198 40.4389 24.582 40.4389 30.4311 36.0072C35.6874 36.0072 39.9162 40.241 39.9162 45.5036V53.813Z" stroke="#FF5641" stroke-width="2" stroke-miterlimit="10" stroke-linecap="round" stroke-linejoin="round"/>
<path d="M30.4311 18.0036C30.4311 24.8885 26.0048 32.0504 20.5509 32.0504C15.097 32.0504 10.6707 24.8885 10.6707 18.0036C10.6707 11.1187 15.097 7.12231 20.5509 7.12231C26.0048 7.12231 30.4311 11.1187 30.4311 18.0036Z" stroke="#FF5641" stroke-width="2" stroke-miterlimit="10" stroke-linecap="round" stroke-linejoin="round"/>
<path d="M10.6707 36.0072C16.5198 40.4389 24.582 40.4389 30.4311 36.0072C35.6874 36.0072 39.9162 40.241 39.9162 45.5036V53.813H1.18563" stroke="#FF5641" stroke-width="2" stroke-miterlimit="10" stroke-linecap="round" stroke-linejoin="round"/>
<path d="M10.6707 18.0036C10.6707 11.1187 15.097 7.12231 20.5509 7.12231C26.0048 7.12231 30.4311 11.1187 30.4311 18.0036C30.4311 24.8885 26.0048 32.0504 20.5509 32.0504C15.097 32.0504 10.6707 24.8885 10.6707 18.0036Z" stroke="#FF5641" stroke-width="2" stroke-miterlimit="10" stroke-linecap="round" stroke-linejoin="round"/>
</svg>
