<svg width="20" height="11" viewBox="0 0 20 11" fill="none" xmlns="http://www.w3.org/2000/svg">
<path d="M10.5452 10.9474C10.7999 10.8964 11.2584 10.7945 11.2584 10.1832C11.2584 10.1832 11.2075 8.65484 11.9207 8.45106C12.634 8.24728 13.551 9.92847 14.5189 10.5908C15.2322 11.0493 15.7926 10.9983 15.7926 10.9983L18.3908 10.9474C18.3908 10.9474 19.7153 10.8455 19.104 9.77563C19.053 9.67374 18.6455 9.01146 17.1171 7.63594C15.5378 6.10759 15.7926 6.36231 17.6775 3.76411C18.8493 2.18481 19.3587 1.21686 19.2059 0.86024C19.0021 0.503624 18.187 0.554569 18.187 0.554569H15.2831C14.9774 0.554569 14.8246 0.605514 14.6718 0.86024C14.6718 0.86024 14.2133 2.13387 13.6019 3.15277C12.3283 5.34341 11.8188 5.4453 11.5641 5.29246C11.1056 5.03774 11.2075 4.06978 11.2075 3.4075C11.2075 1.11497 11.5641 0.299843 10.5452 0.096063C9.88293 -0.0058272 7.53945 -0.107717 6.82622 0.248898C6.4696 0.452679 6.26582 0.809295 6.41866 0.86024C6.57149 0.86024 7.03 0.911185 7.28472 1.21686C7.69229 1.87914 7.74323 5.03774 7.18283 5.34341C6.41866 5.90381 4.48274 2.18481 4.02424 0.96213C3.92235 0.656459 3.76951 0.605514 3.4129 0.503624H0.610915C0.305245 0.503624 -0.153261 0.554569 0.0505192 1.16591C1.42604 4.01884 4.27896 10.9983 9.42442 10.9474H10.5452Z" fill="#1A1A1A"/>
</svg>
